<svg xmlns="http://www.w3.org/2000/svg" viewBox="0 0 24 24" fill="none" stroke="#A67C52" stroke-linecap="round" stroke-linejoin="round" id="Shield-Check--Streamline-Lucide" height="24" width="24">
  <desc>
    Shield Check Streamline Icon: https://streamlinehq.com
  </desc>
  <path d="M20 13c0 5 -3.5 7.5 -7.66 8.95a1 1 0 0 1 -0.67 -0.01C7.5 20.5 4 18 4 13V6a1 1 0 0 1 1 -1c2 0 4.5 -1.2 6.24 -2.72a1.17 1.17 0 0 1 1.52 0C14.51 3.81 17 5 19 5a1 1 0 0 1 1 1z" stroke-width="2"></path>
  <path d="m9 12 2 2 4 -4" stroke-width="2"></path>
</svg>